<svg width="30" height="31" viewBox="0 0 30 31" fill="none" xmlns="http://www.w3.org/2000/svg">
<path fill-rule="evenodd" clip-rule="evenodd" d="M15 26.75C21.2132 26.75 26.25 21.7132 26.25 15.5C26.25 9.2868 21.2132 4.25 15 4.25C8.7868 4.25 3.75 9.2868 3.75 15.5C3.75 21.7132 8.7868 26.75 15 26.75ZM20.7682 12.3902C21.1218 11.9659 21.0645 11.3353 20.6402 10.9818C20.2159 10.6282 19.5853 10.6855 19.2318 11.1098L14.3838 16.9274C14.0371 17.3434 13.8422 17.5738 13.6866 17.7153L13.6806 17.7207L13.6742 17.7159C13.5064 17.589 13.2915 17.3772 12.9085 16.9943L10.7071 14.7929C10.3166 14.4024 9.68342 14.4024 9.29289 14.7929C8.90237 15.1834 8.90237 15.8166 9.29289 16.2071L11.4943 18.4085L11.5351 18.4493L11.5351 18.4493C11.8616 18.776 12.1757 19.0902 12.4679 19.3111C12.7953 19.5587 13.224 19.7915 13.7734 19.7665C14.3228 19.7416 14.7287 19.471 15.0323 19.1948C15.3034 18.9483 15.5877 18.6069 15.8833 18.2521L15.9203 18.2077L20.7682 12.3902Z" fill="#1EC800"/>
</svg>
