<svg width="24" height="25" viewBox="0 0 24 25" fill="none" xmlns="http://www.w3.org/2000/svg">
<path d="M9 10.5L12.2581 12.9436C12.6766 13.2574 13.2662 13.1957 13.6107 12.8021L20 5.5" stroke="#1EC800" stroke-linecap="round"/>
<path d="M21 12.5C21 14.3805 20.411 16.2137 19.3156 17.7423C18.2203 19.2709 16.6736 20.4179 14.893 21.0224C13.1123 21.6268 11.187 21.6583 9.38744 21.1125C7.58792 20.5666 6.00459 19.4707 4.85982 17.9789C3.71505 16.487 3.06635 14.674 3.00482 12.7945C2.94329 10.915 3.47203 9.06344 4.51677 7.49987C5.56152 5.9363 7.06979 4.73925 8.82975 4.07685C10.5897 3.41444 12.513 3.31996 14.3294 3.80667" stroke="#1EC800" stroke-linecap="round"/>
</svg>
