<svg width="37" height="37" viewBox="0 0 37 37" fill="none" xmlns="http://www.w3.org/2000/svg">
<g clip-path="url(#clip0_38_162)">
<path d="M8.90643 21.5395L15.6193 32.2695C15.8794 32.6936 16.245 33.0431 16.6804 33.284C17.1157 33.5248 17.6061 33.6488 18.1036 33.6438C18.4954 33.658 18.8861 33.5934 19.2526 33.454C19.619 33.3146 19.9538 33.1031 20.2371 32.8321C20.5205 32.5611 20.7466 32.236 20.9022 31.8761C21.0577 31.5162 21.1396 31.1287 21.1429 30.7367V23.046H32.745C33.1737 23.0321 33.5946 22.9276 33.9801 22.7394C34.3655 22.5511 34.7067 22.2835 34.9813 21.954C35.2559 21.6245 35.4577 21.2405 35.5733 20.8275C35.6889 20.4144 35.7158 19.9816 35.6521 19.5574L33.5379 5.92024C33.4477 5.19144 33.0944 4.52067 32.5445 4.034C31.9945 3.54733 31.2858 3.27827 30.5514 3.27738H13.2143C12.389 3.27415 11.5744 3.46422 10.8357 3.83238L8.93286 4.78381" stroke="#00A0E3" stroke-width="3" stroke-linecap="round" stroke-linejoin="round"/>
<path d="M8.90643 21.5397V4.86328" stroke="#000001" stroke-linecap="round" stroke-linejoin="round"/>
<path d="M2.64285 4.86328H8.90643V21.5397H2.64285C2.29239 21.5397 1.95628 21.4005 1.70846 21.1527C1.46065 20.9049 1.32143 20.5687 1.32143 20.2183V6.18471C1.32143 5.83424 1.46065 5.49813 1.70846 5.25032C1.95628 5.0025 2.29239 4.86328 2.64285 4.86328V4.86328Z" stroke="#00A0E3" stroke-width="3" stroke-linecap="round" stroke-linejoin="round"/>
</g>
<defs>
<clipPath id="clip0_38_162">
<rect width="37" height="37" fill="white"/>
</clipPath>
</defs>
</svg>
