<svg width="57" height="57" viewBox="0 0 57 57" fill="none" xmlns="http://www.w3.org/2000/svg">
<circle cx="28.1438" cy="28.8563" r="16.7437" fill="white"/>
<path fill-rule="evenodd" clip-rule="evenodd" d="M28.5 49.875C40.3051 49.875 49.875 40.3051 49.875 28.5C49.875 16.6949 40.3051 7.125 28.5 7.125C16.6949 7.125 7.125 16.6949 7.125 28.5C7.125 40.3051 16.6949 49.875 28.5 49.875ZM38.7682 22.0152C39.1218 21.5909 39.0645 20.9603 38.6402 20.6068C38.2159 20.2532 37.5853 20.3105 37.2318 20.7348L26.7588 33.3024C26.4121 33.7184 26.2172 33.9488 26.0616 34.0903L26.0556 34.0957L26.0492 34.0909C25.8814 33.964 25.6665 33.7522 25.2835 33.3693L19.7071 27.7929C19.3166 27.4024 18.6834 27.4024 18.2929 27.7929C17.9024 28.1834 17.9024 28.8166 18.2929 29.2071L23.8693 34.7835L23.9101 34.8243L23.9101 34.8243C24.2366 35.151 24.5507 35.4652 24.8429 35.6861C25.1703 35.9337 25.599 36.1665 26.1484 36.1415C26.6978 36.1166 27.1037 35.846 27.4073 35.5698C27.6784 35.3233 27.9627 34.9819 28.2583 34.6271L28.2953 34.5827L38.7682 22.0152Z" fill="#1EC800"/>
</svg>
