<svg width="37" height="37" viewBox="0 0 37 37" fill="none" xmlns="http://www.w3.org/2000/svg">
<g clip-path="url(#clip0_38_157)">
<path d="M8.90643 15.4607L15.6193 4.73069C15.8794 4.30658 16.245 3.95709 16.6804 3.71625C17.1157 3.47541 17.6061 3.35143 18.1036 3.3564V3.3564C18.4954 3.34226 18.8861 3.40681 19.2526 3.54623C19.619 3.68565 19.9538 3.89712 20.2371 4.16814C20.5205 4.43916 20.7466 4.76423 20.9022 5.12413C21.0577 5.48404 21.1396 5.87147 21.1429 6.26354V13.9543H32.745C33.1737 13.9682 33.5946 14.0727 33.9801 14.2609C34.3655 14.4491 34.7067 14.7167 34.9813 15.0462C35.2559 15.3758 35.4577 15.7597 35.5733 16.1727C35.6889 16.5858 35.7158 17.0186 35.6521 17.4428L33.5379 31.08C33.4477 31.8088 33.0944 32.4795 32.5445 32.9662C31.9945 33.4529 31.2858 33.7219 30.5514 33.7228H13.2143C12.389 33.7261 11.5744 33.536 10.8357 33.1678L8.93286 32.2164" stroke="#1EC800" stroke-width="3" stroke-linecap="round" stroke-linejoin="round"/>
<path d="M8.90643 15.4604V32.1369" stroke="#1EC800" stroke-linecap="round" stroke-linejoin="round"/>
<path d="M2.64284 15.4604H8.90641V32.1369H2.64284C2.29238 32.1369 1.95626 31.9977 1.70845 31.7498C1.46063 31.502 1.32141 31.1659 1.32141 30.8154V16.7819C1.32141 16.4314 1.46063 16.0953 1.70845 15.8475C1.95626 15.5997 2.29238 15.4604 2.64284 15.4604V15.4604Z" stroke="#1EC800" stroke-width="3" stroke-linecap="round" stroke-linejoin="round"/>
</g>
<defs>
<clipPath id="clip0_38_157">
<rect width="37" height="37" fill="white"/>
</clipPath>
</defs>
</svg>
