<svg width="39" height="39" viewBox="0 0 39 39" fill="none" xmlns="http://www.w3.org/2000/svg">
<path d="M20.1245 36.4459L19.4504 35.7073L19.4504 35.7073L20.1245 36.4459ZM18.8755 36.4459L18.2013 37.1845L18.2013 37.1845L18.8755 36.4459ZM29.875 17.875C29.875 21.6489 27.9289 25.5375 25.5784 28.8311C23.2456 32.1 20.6144 34.6448 19.4504 35.7073L20.7987 37.1845C22.0149 36.0744 24.759 33.4222 27.2063 29.9929C29.636 26.5885 31.875 22.278 31.875 17.875H29.875ZM19.5 7.5C25.23 7.5 29.875 12.145 29.875 17.875H31.875C31.875 11.0405 26.3345 5.5 19.5 5.5V7.5ZM9.125 17.875C9.125 12.145 13.77 7.5 19.5 7.5V5.5C12.6655 5.5 7.125 11.0405 7.125 17.875H9.125ZM19.5496 35.7073C18.3856 34.6448 15.7544 32.1 13.4216 28.8311C11.0711 25.5375 9.125 21.6489 9.125 17.875H7.125C7.125 22.278 9.36402 26.5885 11.7937 29.9929C14.241 33.4222 16.9851 36.0744 18.2013 37.1845L19.5496 35.7073ZM19.4504 35.7073C19.4512 35.7066 19.4565 35.7022 19.4666 35.6983C19.4763 35.6945 19.4878 35.6922 19.5 35.6922C19.5122 35.6922 19.5237 35.6945 19.5334 35.6983C19.5435 35.7022 19.5488 35.7066 19.5496 35.7073L18.2013 37.1845C18.943 37.8615 20.057 37.8615 20.7987 37.1845L19.4504 35.7073ZM23.375 17.875C23.375 20.0151 21.6401 21.75 19.5 21.75V23.75C22.7447 23.75 25.375 21.1197 25.375 17.875H23.375ZM19.5 14C21.6401 14 23.375 15.7349 23.375 17.875H25.375C25.375 14.6303 22.7447 12 19.5 12V14ZM15.625 17.875C15.625 15.7349 17.3599 14 19.5 14V12C16.2553 12 13.625 14.6303 13.625 17.875H15.625ZM19.5 21.75C17.3599 21.75 15.625 20.0151 15.625 17.875H13.625C13.625 21.1197 16.2553 23.75 19.5 23.75V21.75Z" fill="#00A0E3"/>
</svg>
