<svg width="59" height="59" viewBox="0 0 59 59" fill="none" xmlns="http://www.w3.org/2000/svg">
<rect width="59" height="59" fill="#0077FF"/>
<path d="M30.9492 39.8248C19.8623 39.8248 13.5385 32.0733 13.275 19.1748H18.8286C19.011 28.642 23.1053 32.6521 26.3483 33.4789V19.1748H31.5776V27.3397C34.78 26.9883 38.1446 23.2676 39.2796 19.1748H44.5089C44.0812 21.2974 43.2286 23.3072 42.0045 25.0785C40.7804 26.8497 39.211 28.3443 37.3946 29.4688C39.4222 30.4962 41.213 31.9505 42.6489 33.7356C44.0849 35.5207 45.1333 37.5961 45.725 39.8248H39.9687C39.4376 37.889 38.358 36.1562 36.8653 34.8435C35.3726 33.5308 33.5332 32.6965 31.5776 32.4454V39.8248H30.9492Z" fill="white"/>
</svg>
